<svg id="visual" viewBox="0 0 900 600" width="900" height="600" xmlns="http://www.w3.org/2000/svg" xmlns:xlink="http://www.w3.org/1999/xlink" version="1.1"><rect x="0" y="0" width="900" height="600" fill="#ffffff"></rect><path d="M0 199L16.7 201.2C33.3 203.3 66.7 207.7 100 213.5C133.3 219.3 166.7 226.7 200 230.3C233.3 234 266.7 234 300 226.2C333.3 218.3 366.7 202.7 400 200.8C433.3 199 466.7 211 500 213.3C533.3 215.7 566.7 208.3 600 202C633.3 195.7 666.7 190.3 700 194.3C733.3 198.3 766.7 211.7 800 217.2C833.3 222.7 866.7 220.3 883.3 219.2L900 218L900 0L883.3 0C866.7 0 833.3 0 800 0C766.7 0 733.3 0 700 0C666.7 0 633.3 0 600 0C566.7 0 533.3 0 500 0C466.7 0 433.3 0 400 0C366.7 0 333.3 0 300 0C266.7 0 233.3 0 200 0C166.7 0 133.3 0 100 0C66.7 0 33.3 0 16.7 0L0 0Z" fill="#76ffaf"></path><path d="M0 138L16.7 136.2C33.3 134.3 66.7 130.7 100 133.2C133.3 135.7 166.7 144.3 200 147.8C233.3 151.3 266.7 149.7 300 150.8C333.3 152 366.7 156 400 154.2C433.3 152.3 466.7 144.7 500 138.7C533.3 132.7 566.7 128.3 600 126C633.3 123.7 666.7 123.3 700 132.3C733.3 141.3 766.7 159.7 800 161.2C833.3 162.7 866.7 147.3 883.3 139.7L900 132L900 0L883.3 0C866.7 0 833.3 0 800 0C766.7 0 733.3 0 700 0C666.7 0 633.3 0 600 0C566.7 0 533.3 0 500 0C466.7 0 433.3 0 400 0C366.7 0 333.3 0 300 0C266.7 0 233.3 0 200 0C166.7 0 133.3 0 100 0C66.7 0 33.3 0 16.7 0L0 0Z" fill="#96ffa9"></path><path d="M0 129L16.7 122.7C33.3 116.3 66.7 103.7 100 95.7C133.3 87.7 166.7 84.3 200 87C233.3 89.7 266.7 98.3 300 105.8C333.3 113.3 366.7 119.7 400 121.3C433.3 123 466.7 120 500 120C533.3 120 566.7 123 600 123.2C633.3 123.3 666.7 120.7 700 120C733.3 119.3 766.7 120.7 800 113.8C833.3 107 866.7 92 883.3 84.5L900 77L900 0L883.3 0C866.7 0 833.3 0 800 0C766.7 0 733.3 0 700 0C666.7 0 633.3 0 600 0C566.7 0 533.3 0 500 0C466.7 0 433.3 0 400 0C366.7 0 333.3 0 300 0C266.7 0 233.3 0 200 0C166.7 0 133.3 0 100 0C66.7 0 33.3 0 16.7 0L0 0Z" fill="#afffa6"></path><path d="M0 52L16.7 56C33.3 60 66.7 68 100 67.7C133.3 67.3 166.7 58.7 200 58.5C233.3 58.3 266.7 66.7 300 70.8C333.3 75 366.7 75 400 75.8C433.3 76.7 466.7 78.3 500 73C533.3 67.7 566.7 55.3 600 53.2C633.3 51 666.7 59 700 58.5C733.3 58 766.7 49 800 43.8C833.3 38.7 866.7 37.3 883.3 36.7L900 36L900 0L883.3 0C866.7 0 833.3 0 800 0C766.7 0 733.3 0 700 0C666.7 0 633.3 0 600 0C566.7 0 533.3 0 500 0C466.7 0 433.3 0 400 0C366.7 0 333.3 0 300 0C266.7 0 233.3 0 200 0C166.7 0 133.3 0 100 0C66.7 0 33.3 0 16.7 0L0 0Z" fill="#c5ffa5"></path></svg>