<svg id="visual" viewBox="0 0 960 540" width="960" height="540" xmlns="http://www.w3.org/2000/svg" xmlns:xlink="http://www.w3.org/1999/xlink" version="1.1"><path d="M0 28L87 28L87 66L175 66L175 33L262 33L262 33L349 33L349 66L436 66L436 28L524 28L524 55L611 55L611 50L698 50L698 55L785 55L785 28L873 28L873 44L960 44L960 60L960 0L960 0L873 0L873 0L785 0L785 0L698 0L698 0L611 0L611 0L524 0L524 0L436 0L436 0L349 0L349 0L262 0L262 0L175 0L175 0L87 0L87 0L0 0Z" fill="#74cdff"></path><path d="M0 66L87 66L87 104L175 104L175 87L262 87L262 71L349 71L349 87L436 87L436 60L524 60L524 109L611 109L611 77L698 77L698 93L785 93L785 66L873 66L873 71L960 71L960 114L960 58L960 42L873 42L873 26L785 26L785 53L698 53L698 48L611 48L611 53L524 53L524 26L436 26L436 64L349 64L349 31L262 31L262 31L175 31L175 64L87 64L87 26L0 26Z" fill="#8ad3ff"></path><path d="M0 212L87 212L87 185L175 185L175 190L262 190L262 206L349 206L349 201L436 201L436 179L524 179L524 228L611 228L611 168L698 168L698 201L785 201L785 179L873 179L873 179L960 179L960 266L960 112L960 69L873 69L873 64L785 64L785 91L698 91L698 75L611 75L611 107L524 107L524 58L436 58L436 85L349 85L349 69L262 69L262 85L175 85L175 102L87 102L87 64L0 64Z" fill="#9ed9ff"></path><path d="M0 255L87 255L87 206L175 206L175 217L262 217L262 255L349 255L349 244L436 244L436 212L524 212L524 271L611 271L611 190L698 190L698 228L785 228L785 228L873 228L873 217L960 217L960 293L960 264L960 177L873 177L873 177L785 177L785 199L698 199L698 166L611 166L611 226L524 226L524 177L436 177L436 199L349 199L349 204L262 204L262 188L175 188L175 183L87 183L87 210L0 210Z" fill="#b0e0ff"></path><path d="M0 276L87 276L87 239L175 239L175 260L262 260L262 282L349 282L349 276L436 276L436 255L524 255L524 293L611 293L611 233L698 233L698 249L785 249L785 266L873 266L873 260L960 260L960 320L960 291L960 215L873 215L873 226L785 226L785 226L698 226L698 188L611 188L611 269L524 269L524 210L436 210L436 242L349 242L349 253L262 253L262 215L175 215L175 204L87 204L87 253L0 253Z" fill="#c1e6ff"></path><path d="M0 298L87 298L87 266L175 266L175 276L262 276L262 314L349 314L349 309L436 309L436 271L524 271L524 330L611 330L611 260L698 260L698 276L785 276L785 298L873 298L873 287L960 287L960 357L960 318L960 258L873 258L873 264L785 264L785 247L698 247L698 231L611 231L611 291L524 291L524 253L436 253L436 274L349 274L349 280L262 280L262 258L175 258L175 237L87 237L87 274L0 274Z" fill="#d1ecff"></path><path d="M0 352L87 352L87 325L175 325L175 352L262 352L262 379L349 379L349 368L436 368L436 320L524 320L524 363L611 363L611 320L698 320L698 352L785 352L785 330L873 330L873 352L960 352L960 395L960 355L960 285L873 285L873 296L785 296L785 274L698 274L698 258L611 258L611 328L524 328L524 269L436 269L436 307L349 307L349 312L262 312L262 274L175 274L175 264L87 264L87 296L0 296Z" fill="#e1f2ff"></path><path d="M0 449L87 449L87 471L175 471L175 482L262 482L262 460L349 460L349 460L436 460L436 482L524 482L524 482L611 482L611 471L698 471L698 498L785 498L785 471L873 471L873 455L960 455L960 487L960 393L960 350L873 350L873 328L785 328L785 350L698 350L698 318L611 318L611 361L524 361L524 318L436 318L436 366L349 366L349 377L262 377L262 350L175 350L175 323L87 323L87 350L0 350Z" fill="#f0f9ff"></path><path d="M0 541L87 541L87 541L175 541L175 541L262 541L262 541L349 541L349 541L436 541L436 541L524 541L524 541L611 541L611 541L698 541L698 541L785 541L785 541L873 541L873 541L960 541L960 541L960 485L960 453L873 453L873 469L785 469L785 496L698 496L698 469L611 469L611 480L524 480L524 480L436 480L436 458L349 458L349 458L262 458L262 480L175 480L175 469L87 469L87 447L0 447Z" fill="#ffffff"></path></svg>