<?xml version="1.0" encoding="iso-8859-1"?>
<!-- Generator: Adobe Illustrator 19.0.0, SVG Export Plug-In . SVG Version: 6.00 Build 0)  -->
<svg xmlns="http://www.w3.org/2000/svg" xmlns:xlink="http://www.w3.org/1999/xlink" version="1.1" id="Capa_1" x="0px" y="0px" viewBox="0 0 512 512" style="enable-background:new 0 0 512 512;" xml:space="preserve">
<path style="fill:#FAEBC8;" d="M18.551,399.5C12.182,399.5,7,394.318,7,387.949V124.051c0-6.369,5.182-11.551,11.551-11.551h474.898  c6.369,0,11.551,5.182,11.551,11.551v263.898c0,6.369-5.182,11.551-11.551,11.551H18.551z"/>
<path style="fill:#F4D392;" d="M98.613,372.657c-6.369,0-11.551-5.182-11.551-11.551V112.5H18.551C12.182,112.5,7,117.682,7,124.051  v263.898c0,6.369,5.182,11.551,11.551,11.551h474.898c6.369,0,11.551-5.182,11.551-11.551v-15.292H98.613z"/>
<path style="fill:#FF9750;" d="M117.3,228.869l1.646-28.319c0-20.932,17.029-37.96,37.96-37.96s37.96,17.028,37.96,37.96v28.606  L117.3,228.869z"/>
<path style="fill:#FFDC64;" d="M309,257.102v-83.205c0-2.429,1.969-4.398,4.398-4.398h154.205c2.429,0,4.398,1.969,4.398,4.398  v83.205c0,2.429-1.969,4.398-4.398,4.398H313.398C310.969,261.5,309,259.531,309,257.102z"/>
<path style="fill:#FF9750;" d="M135.587,295.089l0.063,51.138c0,11.454,9.319,20.772,20.773,20.772s20.773-9.318,20.773-20.772  l0.001-51.138H135.587z"/>
<path style="fill:#FFBD52;" d="M108.221,351.137c-6.207-0.001-12.335-1.646-17.724-4.757c-16.973-9.799-22.809-31.58-13.01-48.553  l44.414-76.927h68.238l1.013,6.826c1.172,7.901-0.38,16.06-4.371,22.971L139.05,333.37c-6.328,10.959-18.14,17.767-30.827,17.767  C108.222,351.137,108.222,351.137,108.221,351.137z"/>
<path style="fill:#FFDC64;" d="M203.778,351.137c-12.688-0.001-24.501-6.809-30.829-17.767l-47.731-82.673  c-3.99-6.911-5.542-15.069-4.371-22.971l1.013-6.826h68.238l44.414,76.927c9.799,16.973,3.963,38.754-13.01,48.553  C216.114,349.492,209.985,351.137,203.778,351.137C203.779,351.137,203.779,351.137,203.778,351.137z"/>
<path style="fill:#FFC850;" d="M125.219,250.697c-3.99-6.911-5.542-15.069-4.371-22.971l1.013-6.826h68.278l1.013,6.826  c1.172,7.901-0.38,16.06-4.371,22.971L156,304.012L125.219,250.697z"/>
<path d="M281.961,323.739l-14.904-3.664v-12.704c0-3.149-1.967-5.963-4.925-7.044l-22.932-8.382l-35.203-60.973l30.755-25.994  c1.686-1.426,2.659-3.521,2.659-5.729v-22.064h20.375c4.142,0,7.5-3.357,7.5-7.5s-3.358-7.5-7.5-7.5h-27.875  c-4.142,0-7.5,3.357-7.5,7.5v26.083l-20.545,17.364V200.55c0-22.108-16.045-40.528-37.099-44.258V143.5c0-4.143-3.358-7.5-7.5-7.5  s-7.5,3.357-7.5,7.5v12.664c-21.409,3.431-37.821,22.026-37.821,44.387v13.4l-21.513-18.182v-26.083c0-4.143-3.358-7.5-7.5-7.5  H55.059c-4.142,0-7.5,3.357-7.5,7.5s3.358,7.5,7.5,7.5h20.375v22.064c0,2.208,0.973,4.303,2.659,5.729l30.188,25.514L72.8,291.946  l-22.932,8.382c-2.958,1.081-4.925,3.895-4.925,7.044v12.704l-14.904,3.664c-4.022,0.989-6.481,5.052-5.493,9.074  c0.841,3.421,3.905,5.711,7.277,5.711c0.593,0,1.195-0.071,1.796-0.219l20.613-5.068c3.353-0.824,5.709-3.831,5.709-7.283v-13.339  l6.105-2.231c-2.007,16.435,5.73,33.271,20.949,42.059c6.684,3.858,13.986,5.691,21.2,5.691c7.418,0,14.736-1.945,21.18-5.615  c2.861,12.291,13.898,21.48,27.047,21.48c13.005,0,23.946-8.987,26.951-21.075c6.26,3.401,13.296,5.209,20.429,5.209  c7.212,0,14.518-1.834,21.2-5.691c15.219-8.788,22.956-25.624,20.949-42.059l6.105,2.231v13.339c0,3.452,2.357,6.459,5.709,7.283  l20.613,5.068c0.601,0.147,1.204,0.219,1.796,0.219c3.372,0,6.436-2.29,7.277-5.711  C288.442,328.791,285.983,324.729,281.961,323.739z M126.946,200.551c0-16.52,13.44-29.96,29.96-29.96s29.96,13.44,29.96,29.96  v13.35h-59.92V200.551z M179.853,246.697L156,288.012l-23.853-41.315c-3.13-5.421-4.291-11.693-3.385-17.797h54.477  C184.144,235.004,182.983,241.276,179.853,246.697z M132.122,329.37c-7.594,13.152-24.474,17.676-37.625,10.082  c-13.153-7.594-17.675-24.473-10.082-37.625l31.529-54.609c0.856,2.399,1.919,4.738,3.213,6.979l28.183,48.815L132.122,329.37z   M169.195,340.429v5.799c0,7.043-5.73,12.772-12.773,12.772s-12.773-5.729-12.773-12.772v-6.878c0-0.042-0.006-0.082-0.006-0.124  c0.51-0.765,1.003-1.548,1.469-2.355L156,318.012l10.888,18.858c0.713,1.234,1.495,2.401,2.309,3.535  C169.196,340.413,169.195,340.421,169.195,340.429z M217.503,339.452c-13.153,7.594-30.032,3.069-37.625-10.082l-15.218-26.358  l28.183-48.815c1.294-2.241,2.357-4.581,3.213-6.979l31.529,54.609C235.178,314.979,230.655,331.858,217.503,339.452z"/>
<path d="M493.449,105.5H18.551C8.322,105.5,0,113.822,0,124.051v263.898C0,398.178,8.322,406.5,18.551,406.5h474.898  c10.229,0,18.551-8.322,18.551-18.551V124.051C512,113.822,503.678,105.5,493.449,105.5z M497,387.949  c0,1.958-1.593,3.551-3.551,3.551H18.551c-1.958,0-3.551-1.593-3.551-3.551V124.051c0-1.958,1.593-3.551,3.551-3.551h474.898  c1.958,0,3.551,1.593,3.551,3.551V387.949z"/>
<path d="M471.5,162.5h-162c-4.142,0-7.5,3.358-7.5,7.5v91c0,4.142,3.358,7.5,7.5,7.5h76.256c4.142,0,7.5-3.358,7.5-7.5l0,0  c0-4.142-3.358-7.5-7.5-7.5H317v-76h147v76h-34.583c-4.142,0-7.5,3.358-7.5,7.5l0,0c0,4.142,3.358,7.5,7.5,7.5H471.5  c4.142,0,7.5-3.358,7.5-7.5v-91C479,165.858,475.642,162.5,471.5,162.5z"/>
<path d="M464.5,290.5h-149c-4.142,0-7.5,3.357-7.5,7.5s3.358,7.5,7.5,7.5h149c4.142,0,7.5-3.357,7.5-7.5S468.642,290.5,464.5,290.5z  "/>
<path d="M464.5,331.5h-149c-4.142,0-7.5,3.357-7.5,7.5s3.358,7.5,7.5,7.5h149c4.142,0,7.5-3.357,7.5-7.5S468.642,331.5,464.5,331.5z  "/>
<circle cx="31.5" cy="136" r="7.5"/>
<circle cx="480.5" cy="136" r="7.5"/>
<circle cx="31.5" cy="376" r="7.5"/>
<circle cx="480.5" cy="376" r="7.5"/>
<g>
</g>
<g>
</g>
<g>
</g>
<g>
</g>
<g>
</g>
<g>
</g>
<g>
</g>
<g>
</g>
<g>
</g>
<g>
</g>
<g>
</g>
<g>
</g>
<g>
</g>
<g>
</g>
<g>
</g>
</svg>
