<svg id="visual" viewBox="0 0 960 540" width="960" height="540" xmlns="http://www.w3.org/2000/svg" xmlns:xlink="http://www.w3.org/1999/xlink" version="1.1"><path d="M0 98L17.8 99C35.7 100 71.3 102 106.8 109.2C142.3 116.3 177.7 128.7 213.2 146.7C248.7 164.7 284.3 188.3 320 194.7C355.7 201 391.3 190 426.8 198C462.3 206 497.7 233 533.2 234.8C568.7 236.7 604.3 213.3 640 189C675.7 164.7 711.3 139.3 746.8 134C782.3 128.7 817.7 143.3 853.2 156C888.7 168.7 924.3 179.3 942.2 184.7L960 190L960 0L942.2 0C924.3 0 888.7 0 853.2 0C817.7 0 782.3 0 746.8 0C711.3 0 675.7 0 640 0C604.3 0 568.7 0 533.2 0C497.7 0 462.3 0 426.8 0C391.3 0 355.7 0 320 0C284.3 0 248.7 0 213.2 0C177.7 0 142.3 0 106.8 0C71.3 0 35.7 0 17.8 0L0 0Z" fill="#ffffff"></path><path d="M0 266L17.8 264.2C35.7 262.3 71.3 258.7 106.8 261.3C142.3 264 177.7 273 213.2 289.2C248.7 305.3 284.3 328.7 320 332.2C355.7 335.7 391.3 319.3 426.8 323.8C462.3 328.3 497.7 353.7 533.2 352C568.7 350.3 604.3 321.7 640 311.8C675.7 302 711.3 311 746.8 313.7C782.3 316.3 817.7 312.7 853.2 307.2C888.7 301.7 924.3 294.3 942.2 290.7L960 287L960 188L942.2 182.7C924.3 177.3 888.7 166.7 853.2 154C817.7 141.3 782.3 126.7 746.8 132C711.3 137.3 675.7 162.7 640 187C604.3 211.3 568.7 234.7 533.2 232.8C497.7 231 462.3 204 426.8 196C391.3 188 355.7 199 320 192.7C284.3 186.3 248.7 162.7 213.2 144.7C177.7 126.7 142.3 114.3 106.8 107.2C71.3 100 35.7 98 17.8 97L0 96Z" fill="#ffeacf"></path><path d="M0 303L17.8 309.3C35.7 315.7 71.3 328.3 106.8 338.3C142.3 348.3 177.7 355.7 213.2 368.3C248.7 381 284.3 399 320 394.5C355.7 390 391.3 363 426.8 363C462.3 363 497.7 390 533.2 395.3C568.7 400.7 604.3 384.3 640 376.2C675.7 368 711.3 368 746.8 368C782.3 368 817.7 368 853.2 361.7C888.7 355.3 924.3 342.7 942.2 336.3L960 330L960 285L942.2 288.7C924.3 292.3 888.7 299.7 853.2 305.2C817.7 310.7 782.3 314.3 746.8 311.7C711.3 309 675.7 300 640 309.8C604.3 319.7 568.7 348.3 533.2 350C497.7 351.7 462.3 326.3 426.8 321.8C391.3 317.3 355.7 333.7 320 330.2C284.3 326.7 248.7 303.3 213.2 287.2C177.7 271 142.3 262 106.8 259.3C71.3 256.7 35.7 260.3 17.8 262.2L0 264Z" fill="#ffd69f"></path><path d="M0 401L17.8 401C35.7 401 71.3 401 106.8 412.7C142.3 424.3 177.7 447.7 213.2 462.8C248.7 478 284.3 485 320 477.8C355.7 470.7 391.3 449.3 426.8 444.8C462.3 440.3 497.7 452.7 533.2 454.3C568.7 456 604.3 447 640 448C675.7 449 711.3 460 746.8 454.7C782.3 449.3 817.7 427.7 853.2 422.2C888.7 416.7 924.3 427.3 942.2 432.7L960 438L960 328L942.2 334.3C924.3 340.7 888.7 353.3 853.2 359.7C817.7 366 782.3 366 746.8 366C711.3 366 675.7 366 640 374.2C604.3 382.3 568.7 398.7 533.2 393.3C497.7 388 462.3 361 426.8 361C391.3 361 355.7 388 320 392.5C284.3 397 248.7 379 213.2 366.3C177.7 353.7 142.3 346.3 106.8 336.3C71.3 326.3 35.7 313.7 17.8 307.3L0 301Z" fill="#fec36f"></path><path d="M0 541L17.8 541C35.7 541 71.3 541 106.8 541C142.3 541 177.7 541 213.2 541C248.7 541 284.3 541 320 541C355.7 541 391.3 541 426.8 541C462.3 541 497.7 541 533.2 541C568.7 541 604.3 541 640 541C675.7 541 711.3 541 746.8 541C782.3 541 817.7 541 853.2 541C888.7 541 924.3 541 942.2 541L960 541L960 436L942.2 430.7C924.3 425.3 888.7 414.7 853.2 420.2C817.7 425.7 782.3 447.3 746.8 452.7C711.3 458 675.7 447 640 446C604.3 445 568.7 454 533.2 452.3C497.7 450.7 462.3 438.3 426.8 442.8C391.3 447.3 355.7 468.7 320 475.8C284.3 483 248.7 476 213.2 460.8C177.7 445.7 142.3 422.3 106.8 410.7C71.3 399 35.7 399 17.8 399L0 399Z" fill="#fcaf3c"></path></svg>