<?xml version="1.0" ?>
<!DOCTYPE svg  PUBLIC '-//W3C//DTD SVG 1.1//EN'  'http://www.w3.org/Graphics/SVG/1.1/DTD/svg11.dtd'>
<!-- Uploaded to: SVG Repo, www.svgrepo.com, Generator: SVG Repo Mixer Tools -->
<svg width="800px" height="800px" viewBox="0 0 512 512" enable-background="new 0 0 512 512" id="Layer_1" version="1.1" xml:space="preserve" xmlns="http://www.w3.org/2000/svg" xmlns:xlink="http://www.w3.org/1999/xlink">
<g>
<g>
<path d="M388.289,120.883v337.76c0,6.621-5.369,12-12,12H135.711c-6.621,0-12-5.379-12-12v-337.76    c0-6.631,5.379-12,12-12h64.959v11.33c0,6.629,5.369,12,12,12h86.66c6.631,0,12-5.371,12-12v-11.33h64.959    C382.92,108.883,388.289,114.252,388.289,120.883z" fill="#D9DCE1"/>
<path d="M376.289,480.643H135.711c-12.131,0-22-9.869-22-22v-337.76c0-12.131,9.869-22,22-22h64.959    c5.522,0,10,4.478,10,10v11.33c0,1.103,0.897,2,2,2h86.66c1.103,0,2-0.897,2-2v-11.33c0-5.522,4.478-10,10-10h64.959    c12.131,0,22,9.869,22,22v337.76C398.289,470.773,388.42,480.643,376.289,480.643z M135.711,118.883c-1.103,0-2,0.897-2,2v337.76    c0,1.103,0.897,2,2,2h240.578c1.103,0,2-0.897,2-2v-337.76c0-1.103-0.897-2-2-2H321.33v1.33c0,12.131-9.869,22-22,22h-86.66    c-12.131,0-22-9.869-22-22v-1.33H135.711z" fill="#444B54"/>
</g>
<g>
<path d="M252.355,278.578L252.355,278.578c-2.652,0-5.196-1.054-7.071-2.93l-24.355-24.357    c-3.905-3.905-3.905-10.236,0.001-14.142c3.905-3.905,10.236-3.904,14.142,0.001l17.284,17.285l56.647-56.646    c3.907-3.904,10.237-3.902,14.143,0c3.905,3.905,3.905,10.237,0,14.143l-63.719,63.717    C257.551,277.524,255.008,278.578,252.355,278.578z" fill="#444B54"/>
</g>
<g>
<g>
<path d="M284.297,403.33c-2.641,0-5.276-1.039-7.242-3.102l-56.588-59.391c-3.81-3.999-3.656-10.328,0.342-14.139     c3.998-3.81,10.328-3.656,14.139,0.342l56.588,59.391c3.81,3.999,3.656,10.328-0.342,14.139     C289.258,402.414,286.774,403.33,284.297,403.33z" fill="#444B54"/>
</g>
<g>
<path d="M226.307,401.926c-2.642,0-5.276-1.039-7.242-3.103c-3.81-3.998-3.656-10.328,0.343-14.138l59.391-56.58     c3.999-3.81,10.328-3.655,14.138,0.343s3.656,10.328-0.343,14.138l-59.391,56.58C231.267,401.01,228.784,401.926,226.307,401.926     z" fill="#444B54"/>
</g>
</g>
<g>
<path d="M376.289,480.643H135.711c-12.131,0-22-9.869-22-22v-337.76c0-12.131,9.869-22,22-22h64.959    c5.522,0,10,4.478,10,10v11.33c0,1.103,0.897,2,2,2h86.66c1.103,0,2-0.897,2-2v-11.33c0-5.522,4.478-10,10-10h64.959    c12.131,0,22,9.869,22,22v337.76C398.289,470.773,388.42,480.643,376.289,480.643z M135.711,118.883c-1.103,0-2,0.897-2,2v337.76    c0,1.103,0.897,2,2,2h240.578c1.103,0,2-0.897,2-2v-337.76c0-1.103-0.897-2-2-2H321.33v1.33c0,12.131-9.869,22-22,22h-86.66    c-12.131,0-22-9.869-22-22v-1.33H135.711z" fill="#444B54"/>
</g>
<g>
<path d="M299.33,142.213h-86.66c-12.131,0-22-9.869-22-22v-22.67c0-12.131,9.869-22,22-22h86.66    c12.131,0,22,9.869,22,22v22.67C321.33,132.344,311.461,142.213,299.33,142.213z M212.67,95.543c-1.103,0-2,0.897-2,2v22.67    c0,1.103,0.897,2,2,2h86.66c1.103,0,2-0.897,2-2v-22.67c0-1.103-0.897-2-2-2H212.67z" fill="#444B54"/>
</g>
<g>
<path d="M256,95.543c-17.696,0-32.094-14.397-32.094-32.094c0-17.695,14.397-32.092,32.094-32.092    s32.094,14.396,32.094,32.092C288.094,81.146,273.696,95.543,256,95.543z M256,51.357c-6.669,0-12.094,5.425-12.094,12.092    c0,6.669,5.425,12.094,12.094,12.094s12.094-5.425,12.094-12.094C268.094,56.782,262.669,51.357,256,51.357z" fill="#444B54"/>
</g>
<g>
<path d="M252.355,278.578L252.355,278.578c-2.652,0-5.196-1.054-7.071-2.93l-24.355-24.357    c-3.905-3.905-3.905-10.236,0.001-14.142c3.905-3.905,10.236-3.904,14.142,0.001l17.284,17.285l56.647-56.646    c3.907-3.904,10.237-3.902,14.143,0c3.905,3.905,3.905,10.237,0,14.143l-63.719,63.717    C257.551,277.524,255.008,278.578,252.355,278.578z" fill="#444B54"/>
</g>
<g>
<g>
<path d="M284.297,403.33c-2.641,0-5.276-1.039-7.242-3.102l-56.588-59.391c-3.81-3.999-3.656-10.328,0.342-14.139     c3.998-3.81,10.328-3.656,14.139,0.342l56.588,59.391c3.81,3.999,3.656,10.328-0.342,14.139     C289.258,402.414,286.774,403.33,284.297,403.33z" fill="#444B54"/>
</g>
<g>
<path d="M226.307,401.926c-2.642,0-5.276-1.039-7.242-3.103c-3.81-3.998-3.656-10.328,0.343-14.138l59.391-56.58     c3.999-3.81,10.328-3.655,14.138,0.343s3.656,10.328-0.343,14.138l-59.391,56.58C231.267,401.01,228.784,401.926,226.307,401.926     z" fill="#444B54"/>
</g>
</g>
<g>
<path d="M311.33,97.543v22.67c0,6.629-5.369,12-12,12h-86.66c-6.631,0-12-5.371-12-12v-22.67    c0-6.621,5.369-12,12-12h86.66C305.961,85.543,311.33,90.922,311.33,97.543z" fill="#3C74BA"/>
<path d="M299.33,142.213h-86.66c-12.131,0-22-9.869-22-22v-22.67c0-12.131,9.869-22,22-22h86.66    c12.131,0,22,9.869,22,22v22.67C321.33,132.344,311.461,142.213,299.33,142.213z M212.67,95.543c-1.103,0-2,0.897-2,2v22.67    c0,1.103,0.897,2,2,2h86.66c1.103,0,2-0.897,2-2v-22.67c0-1.103-0.897-2-2-2H212.67z" fill="#444B54"/>
</g>
<g>
<path d="M256,95.543c-17.696,0-32.094-14.397-32.094-32.094c0-17.695,14.397-32.092,32.094-32.092    s32.094,14.396,32.094,32.092C288.094,81.146,273.696,95.543,256,95.543z M256,51.357c-6.669,0-12.094,5.425-12.094,12.092    c0,6.669,5.425,12.094,12.094,12.094s12.094-5.425,12.094-12.094C268.094,56.782,262.669,51.357,256,51.357z" fill="#444B54"/>
</g>
</g>
</svg>